<?xml version="1.0" encoding="utf-8"?>
<!-- Generator: Adobe Illustrator 21.0.2, SVG Export Plug-In . SVG Version: 6.00 Build 0)  -->
<svg version="1.1"
	 id="svg3039" inkscape:version="0.48.2 r9819" sodipodi:docname="signature_original 2.svg" xmlns:cc="http://creativecommons.org/ns#" xmlns:dc="http://purl.org/dc/elements/1.1/" xmlns:inkscape="http://www.inkscape.org/namespaces/inkscape" xmlns:rdf="http://www.w3.org/1999/02/22-rdf-syntax-ns#" xmlns:sodipodi="http://sodipodi.sourceforge.net/DTD/sodipodi-0.dtd" xmlns:svg="http://www.w3.org/2000/svg"
	 xmlns="http://www.w3.org/2000/svg" xmlns:xlink="http://www.w3.org/1999/xlink" x="0px" y="0px" viewBox="0 0 1134 720"
	 style="enable-background:new 0 0 1134 720;" xml:space="preserve">
<style type="text/css">
	.st0{fill:#FFFFFF;}
</style>
<sodipodi:namedview  bordercolor="#666666" borderopacity="1" gridtolerance="10" guidetolerance="10" id="namedview3041" inkscape:current-layer="svg3039" inkscape:cx="461.17677" inkscape:cy="354.326" inkscape:pageopacity="0" inkscape:pageshadow="2" inkscape:window-height="628" inkscape:window-maximized="0" inkscape:window-width="938" inkscape:window-x="1734" inkscape:window-y="150" inkscape:zoom="1" objecttolerance="10" pagecolor="#ffffff" showgrid="false">
	</sodipodi:namedview>
<path id="path3075" inkscape:connector-curvature="0" sodipodi:nodetypes="ssscssssssssssscssssssssssssssssssssssssssssssscsssscssssssssscscsssssssssssscssssssssssssssssssssssccsssssssscsscc" class="st0" d="
	M339.1,516.9c-8.5-8.1-7.9-19.4,1.6-29.2c4.8-5,8.4-6.7,14.9-7.4l5.3-0.5l0.5-4.6c3-25.6,3.2-68.1,0.4-110.6
	c-1.8-27.8-1.5-73.5,0.5-92.5c1.9-17.7,4.2-27,9.2-37.9c7.1-15.5,16.9-21.3,29-17.5c8.7,2.7,15,12.4,8.1,12.4
	c-1.3,0-3.2-0.9-4.1-1.9c-3.7-4.1-12.3-3.5-17.4,1.2c-2.7,2.5-7.6,11.8-10.3,19.6c-5.9,17.2-8.3,66.2-5.8,118.1
	c1.5,30.1,1.3,67.8-0.5,90.5c-0.9,11-1.8,20.8-2.1,21.7c-0.4,1.2,0.2,1.9,1.8,2.2c1.3,0.3,5.3,1.2,9,2s12.7,2,20,2.5
	s14.7,1.3,16.5,1.6c7.9,1.4,25.5-3.6,31.2-8.9c3-2.8,10.1-12.8,13.3-18.7c5.5-10.2,10-24.6,12.3-39.9c1.3-8.5,1.3-11-0.5-27
	c-1-9.7-2.6-30-3.5-45.1c-3.1-54.3-8.7-108.5-13-125.5c-2.9-11.7-3.1-14.8-1-16.9c3.1-3.1,7.5-1.2,9.6,4.3
	c1.9,4.9,5.7,23.6,6.8,33.1c0.6,5.2,2.2,16.5,3.6,25.1c6.2,39.1,6.8,47.1,7.1,96.9c0.3,54.8,1.3,67,6.9,83.7
	c4,12,8.7,19.8,14.8,24.3c3.7,2.7,4.8,3,11.6,3c9.3,0,24.5,2.8,41.6,7.5c16,4.4,39.3,7,49.8,5.5c8.6-1.2,21.9-4.2,38.2-8.5
	c19.4-5.1,23.3-5.2,48.5-1.5c11.8,1.7,26.2,4.2,32,5.4c10,2.1,10.5,2.4,10.8,4.9c0.4,3.4,0.6,3.3-19.8,0.7
	c-49.1-6.3-48.2-6.2-66.7-1.5c-18,4.7-35.1,8.1-43.8,8.9c-12.5,1.1-41.8-2.7-67.5-9c-3.6-0.9-12.3-1.9-19.5-2.2
	c-7.8-0.4-14.1-1.2-15.7-2c-8.9-4.5-16.6-17.9-22.8-39.3c-1.2-4.1-2.4-8.2-2.7-9s-1.7,2.5-3.2,7.5c-3.8,12.4-8.9,23-15.4,31.8
	c-8.3,11.3-15.3,15.7-28.5,18.3c-10.4,2.1-40.7,1.2-54.1-1.6c-5.2-1.1-9.5-1.9-9.6-1.7s-0.7,2.5-1.4,5.2c-1.4,5.5-7.3,18-9.9,20.9
	C350.4,520.7,343.7,521.4,339.1,516.9L339.1,516.9z M349.2,510.2c2.2-2.5,7.4-13,8.6-17.5c1-3.7,1-3.8-2-3.8
	c-6.3,0-14.8,8.4-14.8,14.7c0,3.3,3.3,8.3,5.4,8.3C347.1,512,348.4,511.2,349.2,510.2L349.2,510.2z M131.5,500
	c-8.2-13-17.6-34.5-21.5-49l-1.7-6.5l-0.6,5c-0.3,2.8-0.9,8.6-1.2,13c-0.7,9.3-2.1,15.5-3.5,15.5c-1.2,0-1.2-0.6,0-5
	c0.5-1.9,1.4-12.3,2-23c0.9-16.5,0.8-21.8-0.5-34c-2.1-18.6-3.2-157.4-1.5-190.4c1.5-29.2,4.3-41.7,9.4-41.6c5.2,0,5.2-0.2,5.5,30.7
	c0.2,15.8-0.2,35.3-0.7,43.3c-5.9,80.5-4.9,155.9,2.5,188.6c2.1,9.4,8.1,25.8,13.1,36.2l4.5,9.3l2.2-3.3c1.2-1.8,2.6-4.3,2.9-5.5
	c1-3.2,3.7-3.6,20.4-3c12.6,0.4,15.6,0.2,21.1-1.5c4.2-1.3,7.8-1.7,10.5-1.3c5.6,0.8,6.5,0.8,11.1,0.1c2.9-0.5,6.5,0.1,12.8,1.9
	c10.5,3.1,14,3.2,18.1,0.6c5.4-3.4,9.2-12,12.6-28.8c3.7-18.3,4.3-29.6,3.7-71.3c-0.6-47.9-3-78.6-10.2-132
	c-6-44.5-6.7-57.3-3.3-59.4c4.5-2.8,6.9,2.7,11.6,26c7.1,35.4,13.3,85.7,15.1,121.4c0.5,11.3,1.5,28.6,2.1,38.5
	c0.6,9.9,1.5,39.1,1.9,65c0.5,29,1.3,48.4,2,50.6c1.4,4.7,4.8,9,6.9,8.8c3.1-0.3,3.4,0.1,1.6,2.1c-1,1.1-2.8,2-4,2
	c-2.2,0-6.4-3.8-8.4-7.6c-2.4-4.6-4.1-21.1-4.2-38.9c0-26.2-1.7-69.1-3.5-91c-1-8.2-3.7-52.7-2.7-25.5c0.9,25.9,0.6,73.3-0.7,86.5
	c-1.9,19.6-6.3,39.9-10.8,49c-5,10-13.3,12.7-29.7,9.4c-5.3-1-7.4-1-12,0.1c-4.4,1.1-6.3,1.1-8.9,0.2c-2.7-1-4.2-0.9-9.1,0.8
	c-3.4,1.2-8.4,2-12,2c-3.4,0-10.3,0.3-15.2,0.6l-9,0.6l-3.3,5.6c-4.8,8.1-5.8,9.1-9.6,9.1C134.6,504,133.6,503.4,131.5,500
	L131.5,500z"/>
</svg>
