<?xml version="1.0" encoding="UTF-8" standalone="no"?>
<!-- Created with Inkscape (http://www.inkscape.org/) -->

<svg
   xmlns:dc="http://purl.org/dc/elements/1.1/"
   xmlns:cc="http://creativecommons.org/ns#"
   xmlns:rdf="http://www.w3.org/1999/02/22-rdf-syntax-ns#"
   xmlns:svg="http://www.w3.org/2000/svg"
   xmlns="http://www.w3.org/2000/svg"
   xmlns:sodipodi="http://sodipodi.sourceforge.net/DTD/sodipodi-0.dtd"
   xmlns:inkscape="http://www.inkscape.org/namespaces/inkscape"
   id="svg3039"
   version="1.1"
   inkscape:version="0.48.2 r9819"
   width="1134"
   height="720"
   sodipodi:docname="signature_original 2.svg">
  <metadata
     id="metadata3045">
    <rdf:RDF>
      <cc:Work
         rdf:about="">
        <dc:format>image/svg+xml</dc:format>
        <dc:type
           rdf:resource="http://purl.org/dc/dcmitype/StillImage" />
        <dc:title></dc:title>
      </cc:Work>
    </rdf:RDF>
  </metadata>
  <defs
     id="defs3043" />
  <sodipodi:namedview
     pagecolor="#ffffff"
     bordercolor="#666666"
     borderopacity="1"
     objecttolerance="10"
     gridtolerance="10"
     guidetolerance="10"
     inkscape:pageopacity="0"
     inkscape:pageshadow="2"
     inkscape:window-width="938"
     inkscape:window-height="628"
     id="namedview3041"
     showgrid="false"
     inkscape:zoom="1"
     inkscape:cx="461.17677"
     inkscape:cy="354.326"
     inkscape:window-x="1734"
     inkscape:window-y="150"
     inkscape:window-maximized="0"
     inkscape:current-layer="svg3039" />
  <path
     style="fill:#000000"
     d="m 339.05732,516.90434 c -8.52513,-8.14707 -7.9099,-19.44497 1.59124,-29.22124 4.82139,-4.96099 8.37446,-6.72677 14.88829,-7.39906 l 5.31181,-0.54823 0.5458,-4.6179 c 3.02382,-25.58375 3.19381,-68.13487 0.44192,-110.61791 -1.80212,-27.82058 -1.5419,-73.51118 0.52681,-92.5 1.92448,-17.66503 4.20041,-27.01888 9.22043,-37.89503 7.14193,-15.47343 16.87898,-21.34738 29.04397,-17.52102 8.69052,2.7335 14.97509,12.41605 8.05878,12.41605 -1.30702,0 -3.16122,-0.86722 -4.12044,-1.92715 -3.70836,-4.09769 -12.32924,-3.48204 -17.41616,1.24376 -2.74363,2.54886 -7.62666,11.84985 -10.29896,19.61703 -5.92884,17.23246 -8.33791,66.23478 -5.80443,118.06636 1.47368,30.14944 1.25403,67.76166 -0.52852,90.5 -0.86234,11 -1.80719,20.77251 -2.09969,21.71669 -0.37352,1.20576 0.15476,1.87025 1.77502,2.23265 1.26874,0.28377 5.3127,1.18496 8.98657,2.00263 3.67387,0.81767 12.67387,1.96114 20,2.54105 7.32613,0.57991 14.73774,1.31035 16.47025,1.62321 7.87374,1.42185 25.48727,-3.61522 31.20531,-8.92401 2.96756,-2.75516 10.1043,-12.76996 13.32045,-18.69222 5.53253,-10.18767 9.99188,-24.61059 12.3274,-39.87068 1.30351,-8.51701 1.26044,-10.97674 -0.4727,-27 C 470.9817,382.43319 469.4097,362.125 468.53715,347 c -3.13164,-54.28408 -8.74856,-108.46054 -13.01162,-125.5 -2.92322,-11.68412 -3.09797,-14.7847 -0.9541,-16.92857 3.14881,-3.14881 7.47046,-1.19609 9.59121,4.33375 1.88818,4.92345 5.74646,23.62172 6.82892,33.09482 0.59705,5.225 2.1958,16.49847 3.5528,25.05216 6.20213,39.0946 6.78753,47.12773 7.0649,96.94784 0.30504,54.79047 1.30613,66.9814 6.87515,83.72388 4.00549,12.04193 8.74857,19.80362 14.83862,24.28229 3.65973,2.6914 4.83397,2.99701 11.62397,3.02526 9.3301,0.0388 24.46771,2.75529 41.553,7.45675 15.95826,4.39132 39.29962,6.95583 49.78917,5.47033 8.62284,-1.22115 21.93486,-4.16936 38.23505,-8.46793 19.42971,-5.12386 23.33026,-5.24821 48.47578,-1.54543 11.825,1.74127 26.225,4.17292 32,5.40366 10.01894,2.13519 10.5145,2.36172 10.81642,4.94445 0.39179,3.35143 0.64845,3.34192 -19.81642,0.73484 -49.0976,-6.25469 -48.22825,-6.23573 -66.69631,-1.45425 -18.00936,4.66272 -35.07162,8.14416 -43.80369,8.93786 -12.54581,1.14034 -41.76418,-2.73677 -67.5,-8.95686 -3.575,-0.86404 -12.35,-1.85476 -19.5,-2.2016 -7.84101,-0.38036 -14.08503,-1.17779 -15.73415,-2.00942 C 493.88596,478.8658 486.12844,465.47067 479.98069,444 c -1.18113,-4.125 -2.37645,-8.175 -2.65629,-9 -0.27983,-0.825 -1.73534,2.55 -3.23446,7.5 -3.75868,12.41091 -8.86812,22.95431 -15.41214,31.80314 -8.33399,11.26922 -15.25044,15.7183 -28.51518,18.34268 -10.42768,2.06308 -40.65447,1.15738 -54.11572,-1.6215 -5.19921,-1.0733 -9.51511,-1.85535 -9.5909,-1.73789 -0.0758,0.11747 -0.7202,2.46357 -1.43203,5.21357 -1.43555,5.54597 -7.32111,17.97326 -9.87568,20.85238 -4.78318,5.39086 -11.40557,6.02959 -16.09097,1.55196 z M 349.24976,510.25 c 2.19333,-2.46087 7.37192,-13.02559 8.57811,-17.5 1.00684,-3.73489 0.99862,-3.75 -2.04044,-3.75 C 349.44466,489 341,497.37697 341,503.66889 c 0,3.25869 3.29852,8.33111 5.41759,8.33111 0.69984,0 1.97432,-0.7875 2.83217,-1.75 z M 131.50605,500.00959 C 123.26949,486.96203 113.87157,465.5128 110.03264,451 l -1.71938,-6.5 -0.63157,5 c -0.34735,2.75 -0.90679,8.6 -1.24318,13 -0.70941,9.2789 -2.10496,15.5 -3.47705,15.5 -1.18806,0 -1.19079,-0.59225 -0.0231,-5 0.50998,-1.925 1.41324,-12.275 2.00724,-23 0.91215,-16.46939 0.8294,-21.75353 -0.53247,-34 -2.06926,-18.60763 -3.18801,-157.35775 -1.5348,-190.35029 1.46409,-29.21851 4.27445,-41.66966 9.39732,-41.6344 5.24874,0.0361 5.20083,-0.22929 5.5404,30.69717 0.17384,15.83314 -0.16128,35.31252 -0.74472,43.28752 -5.88967,80.506 -4.87707,155.92224 2.53294,188.64803 2.12156,9.36968 8.08183,25.79351 13.11977,36.15219 l 4.52316,9.30022 2.23519,-3.30022 c 1.22936,-1.81512 2.55373,-4.31167 2.94304,-5.5479 0.99572,-3.1618 3.71327,-3.5649 20.38696,-3.024 12.58721,0.40833 15.60429,0.19873 21.09802,-1.46566 4.24872,-1.28721 7.78951,-1.74049 10.5,-1.34418 5.62185,0.82199 6.5179,0.82919 11.08956,0.0891 2.87864,-0.46602 6.45721,0.0729 12.76511,1.92243 10.49004,3.07576 13.98315,3.19898 18.11686,0.63907 5.41898,-3.35585 9.20383,-12.01722 12.58722,-28.80496 3.68607,-18.28959 4.27878,-29.60271 3.73363,-71.26411 -0.62716,-47.92941 -2.9898,-78.58367 -10.17371,-132 -5.98031,-44.46693 -6.68657,-57.25925 -3.27911,-59.39361 4.47855,-2.80526 6.94901,2.71765 11.6182,25.97334 7.10073,35.36636 13.34676,85.66685 15.07728,121.42027 0.54573,11.275 1.46907,28.6 2.05187,38.5 0.5828,9.9 1.45407,39.15 1.93615,65 0.54099,29.00884 1.30142,48.39117 1.98656,50.63428 1.42861,4.67726 4.83794,8.99945 6.93762,8.79518 3.13605,-0.30508 3.44254,0.0813 1.64232,2.07054 -0.99549,1.1 -2.78104,2 -3.9679,2 -2.21818,0 -6.43867,-3.84609 -8.38862,-7.64448 -2.37023,-4.61706 -4.13582,-21.08684 -4.16538,-38.85552 -0.0436,-26.20156 -1.68662,-69.1434 -3.48182,-91 -1.01137,-8.23929 -3.7205,-52.68696 -2.74386,-25.5 0.93407,25.87275 0.55167,73.29732 -0.69747,86.5 -1.85643,19.62123 -6.33992,39.94776 -10.8081,49 -4.9517,10.03182 -13.33034,12.68816 -29.73566,9.4273 -5.26621,-1.04675 -7.40112,-1.03324 -12.02551,0.0761 -4.42161,1.06072 -6.31966,1.09677 -8.88608,0.16874 -2.7436,-0.9921 -4.19137,-0.86086 -9.08809,0.82386 -3.37774,1.16211 -8.4249,2.00396 -12.01444,2.00396 -3.4044,0 -10.25227,0.28836 -15.21749,0.6408 l -9.02768,0.6408 -3.31271,5.6092 c -4.80072,8.12876 -5.83201,9.1092 -9.58163,9.1092 -2.79903,0 -3.7357,-0.63876 -5.85151,-3.99041 z"
     id="path3075"
     inkscape:connector-curvature="0"
     sodipodi:nodetypes="ssscssssssssssscssssssssssssssssssssssssssssssscsssscssssssssscscsssssssssssscssssssssssssssssssssssccsssssssscsscc" />
</svg>
